<?xml version="1.0" encoding="UTF-8" standalone="no"?>
<svg
   xmlns:dc="http://purl.org/dc/elements/1.1/"
   xmlns:cc="http://creativecommons.org/ns#"
   xmlns:rdf="http://www.w3.org/1999/02/22-rdf-syntax-ns#"
   xmlns:svg="http://www.w3.org/2000/svg"
   xmlns="http://www.w3.org/2000/svg"
   xmlns:sodipodi="http://sodipodi.sourceforge.net/DTD/sodipodi-0.dtd"
   xmlns:inkscape="http://www.inkscape.org/namespaces/inkscape"
   sodipodi:docname="logo.svg"
   inkscape:version="1.0beta1 (32d4812, 2019-09-19)"
   id="svg8"
   version="1.1"
   viewBox="0 0 122 140"
   height="140mm"
   width="122mm">
  <defs
     id="defs2" />
  <sodipodi:namedview
     inkscape:window-maximized="1"
     inkscape:window-y="23"
     inkscape:window-x="0"
     inkscape:window-height="959"
     inkscape:window-width="1680"
     showgrid="false"
     inkscape:document-rotation="0"
     inkscape:current-layer="layer1"
     inkscape:document-units="mm"
     inkscape:cy="506.40156"
     inkscape:cx="326.30162"
     inkscape:zoom="0.68433379"
     inkscape:pageshadow="2"
     inkscape:pageopacity="0.0"
     borderopacity="1.0"
     bordercolor="#666666"
     pagecolor="#ffffff"
     id="base" />
  <metadata
     id="metadata5">
    <rdf:RDF>
      <cc:Work
         rdf:about="">
        <dc:format>image/svg+xml</dc:format>
        <dc:type
           rdf:resource="http://purl.org/dc/dcmitype/StillImage" />
        <dc:title></dc:title>
      </cc:Work>
    </rdf:RDF>
  </metadata>
  <g
     id="layer1"
     inkscape:groupmode="layer"
     inkscape:label="Camada 1">
    <g
       transform="translate(-49.631058,-63.163075)"
       id="g1045">
      <path
         sodipodi:type="star"
         style="fill:#ffffff;fill-rule:evenodd;stroke-width:0.264583"
         id="path849"
         sodipodi:sides="6"
         sodipodi:cx="110.84145"
         sodipodi:cy="133.23647"
         sodipodi:r1="69.825134"
         sodipodi:r2="33.546318"
         sodipodi:arg1="0.52044844"
         sodipodi:arg2="1.0440472"
         inkscape:flatsided="true"
         inkscape:rounded="0"
         inkscape:randomized="0"
         d="M 171.42148,167.95836 111.06143,203.06125 50.4814,168.33936 50.261427,98.514573 110.62148,63.411678 171.20151,98.13357 Z"
         inkscape:transform-center-x="5.5444329"
         inkscape:transform-center-y="0.90036646" />
      <g
         id="g1019"
         transform="matrix(1.0091668,0,0,0.96367553,62.977388,86.207501)">
        <g
           id="g960">
	<g
   id="g958">
		<path
   id="path952"
   d="M 93.918,45.833 69.799,21.714 c -0.75,-0.75 -2.077,-0.75 -2.827,0 l -5.229,5.229 c -0.781,0.781 -0.781,2.047 0,2.828 L 79.22,47.246 61.744,64.724 c -0.781,0.781 -0.781,2.047 0,2.828 l 5.229,5.229 c 0.375,0.375 0.884,0.587 1.414,0.587 0.529,0 1.039,-0.212 1.414,-0.587 L 93.918,48.663 c 0.781,-0.782 0.781,-2.049 0,-2.83 z"
   inkscape:connector-curvature="0" />

		<path
   id="path954"
   d="M 32.759,64.724 15.285,47.248 32.762,29.773 c 0.375,-0.375 0.586,-0.883 0.586,-1.414 0,-0.53 -0.21,-1.039 -0.586,-1.414 l -5.229,-5.229 c -0.375,-0.375 -0.884,-0.586 -1.414,-0.586 -0.53,0 -1.039,0.211 -1.414,0.586 L 0.585,45.833 c -0.781,0.781 -0.781,2.047 0,2.829 L 24.704,72.78 c 0.375,0.375 0.884,0.587 1.414,0.587 0.53,0 1.039,-0.212 1.414,-0.587 l 5.229,-5.229 c 0.781,-0.78 0.781,-2.046 -0.002,-2.827 z"
   inkscape:connector-curvature="0" />

		<path
   id="path956"
   d="m 60.967,13.6 c -0.254,-0.466 -0.682,-0.812 -1.19,-0.962 L 55.538,11.387 C 54.48,11.073 53.366,11.68 53.054,12.739 L 33.375,79.382 c -0.15,0.509 -0.092,1.056 0.161,1.521 0.253,0.467 0.682,0.812 1.19,0.963 l 4.239,1.251 c 0.189,0.056 0.38,0.083 0.567,0.083 0.863,0 1.66,-0.564 1.917,-1.435 L 61.128,15.121 c 0.15,-0.509 0.093,-1.056 -0.161,-1.521 z"
   inkscape:connector-curvature="0" />

	</g>

</g>
        <g
           id="g962">
</g>
        <g
           id="g964">
</g>
        <g
           id="g966">
</g>
        <g
           id="g968">
</g>
        <g
           id="g970">
</g>
        <g
           id="g972">
</g>
        <g
           id="g974">
</g>
        <g
           id="g976">
</g>
        <g
           id="g978">
</g>
        <g
           id="g980">
</g>
        <g
           id="g982">
</g>
        <g
           id="g984">
</g>
        <g
           id="g986">
</g>
        <g
           id="g988">
</g>
        <g
           id="g990">
</g>
      </g>
    </g>
  </g>
</svg>
